# File created by Blade
# Date/Time:  Wed Sep 24 20:15:16 2014
# Frame Rate: 120.000 fps
#------------------------------------------------------
:FULLY-SPECIFIED
:DEGREES
3230
root -5.872141 32.745539 -4.802185 16.815341 -1.005208 -2.414588
Spine -21.174209 -1.017722 2.872622
Head -3.110598 -15.524521 10.546462
LeftShoulder -5.555591 19.367992 11.529091
LeftArm 20.923517 27.371887 -76.509447
LeftForeArm -3.041624 -0.000000 19.570502
LeftHand -22.276418 0.000000 -4.676450
LeftHandThumb1 -26.253704 0.000000 33.147579
RightShoulder -18.319214 14.736524 -10.834580
RightArm -34.034687 45.552779 60.191413
RightForeArm 55.768617 -0.000000 37.903358
RightHand 2.107073 -0.000000 -31.821994
RightHandThumb1 -24.326973 -0.000000 -32.862282
LeftUpLeg -12.479508 9.061191 3.610350
LeftLeg 0.373504 -0.000000 -0.000000
LeftFoot -13.547857 8.599453 -18.407592
LeftToeBase 9.382391 -0.000000 -0.000000
RightUpLeg -14.476621 -4.128810 -1.499758
RightLeg 3.475829 -0.000000 -0.000000
RightFoot -8.902566 -1.323365 -12.512689
RightToeBase -0.453097 -0.000000 0.000000
3231
root -5.874372 32.745654 -4.806312 16.814851 -0.975931 -2.422194
Spine -21.156012 -1.078101 2.847270
Head -3.138208 -15.567153 10.546637
LeftShoulder -5.568000 19.336023 11.508156
LeftArm 20.906401 27.283153 -76.464574
LeftForeArm -3.110798 -0.000000 19.601857
LeftHand -22.274874 -0.000000 -4.057100
LeftHandThumb1 -26.253704 0.000000 33.147579
RightShoulder -18.365687 14.732431 -10.840638
RightArm -34.202857 45.838579 60.076487
RightForeArm 55.595006 -0.000000 39.260415
RightHand 1.887134 -0.000000 -32.394505
RightHandThumb1 -24.326973 -0.000000 -32.862282
LeftUpLeg -12.497348 9.017986 3.631267
LeftLeg 0.387461 -0.000000 -0.000000
LeftFoot -13.564388 8.617853 -18.431412
LeftToeBase 9.436424 -0.000000 -0.000000
RightUpLeg -14.484402 -4.157257 -1.480376
RightLeg 3.485588 -0.000000 -0.000000
RightFoot -8.903981 -1.313579 -12.497468
RightToeBase -0.481830 -0.000000 0.000000
3232
root -5.877021 32.745846 -4.811003 16.827844 -0.952344 -2.429195
Spine -21.153344 -1.124235 2.811906
Head -3.166664 -15.628431 10.545585
LeftShoulder -5.571895 19.303693 11.498995
LeftArm 20.904055 27.248377 -76.395580
LeftForeArm -3.150227 -0.000000 19.624364
LeftHand -22.247749 -0.000000 -3.818859
LeftHandThumb1 -26.253704 0.000000 33.147579
RightShoulder -18.414169 14.699142 -10.834533
RightArm -34.320641 46.064264 60.026831
RightForeArm 55.452591 -0.000000 40.600440
RightHand 1.983510 -0.000000 -32.514943
RightHandThumb1 -24.326973 -0.000000 -32.862282
LeftUpLeg -12.529115 8.986510 3.645116
LeftLeg 0.401920 -0.000000 -0.000000
LeftFoot -13.566025 8.641906 -18.414995
LeftToeBase 9.396205 -0.000000 -0.000000
RightUpLeg -14.506472 -4.182658 -1.460740
RightLeg 3.491383 -0.000000 -0.000000
RightFoot -8.900851 -1.306149 -12.509730
RightToeBase -0.492956 -0.000000 0.000000
3233
root -5.880086 32.746356 -4.815286 16.837493 -0.936137 -2.438847
Spine -21.149038 -1.166299 2.775976
Head -3.185738 -15.692396 10.551710
LeftShoulder -5.580546 19.284315 11.489626
LeftArm 20.914645 27.199376 -76.326301
LeftForeArm -3.205069 -0.000000 19.649525
LeftHand -22.285306 0.000000 -3.736421
LeftHandThumb1 -26.253704 0.000000 33.147579
RightShoulder -18.477053 14.638821 -10.834272
RightArm -34.392575 46.351852 60.013392
RightForeArm 55.473106 0.000000 41.953665
RightHand 2.057015 -0.000000 -32.283137
RightHandThumb1 -24.326973 -0.000000 -32.862282
LeftUpLeg -12.558399 8.971598 3.661785
LeftLeg 0.422097 -0.000000 -0.000000
LeftFoot -13.575798 8.649172 -18.435464
LeftToeBase 9.456385 -0.000000 -0.000000
RightUpLeg -14.530165 -4.220244 -1.433540
RightLeg 3.505119 -0.000000 -0.000000
RightFoot -8.907668 -1.280283 -12.493788
RightToeBase -0.456346 -0.000000 0.000000
3234
root -5.883068 32.747096 -4.818641 16.834953 -0.921097 -2.447372
Spine -21.132834 -1.218554 2.744609
Head -3.200633 -15.735200 10.553451
LeftShoulder -5.595846 19.265129 11.471538
LeftArm 20.925573 27.141660 -76.260515
LeftForeArm -3.226073 -0.000000 19.661514
LeftHand -22.320682 0.000000 -3.737623
LeftHandThumb1 -26.253704 0.000000 33.147579
RightShoulder -18.545108 14.563810 -10.828749
RightArm -34.413883 46.628386 60.040034
RightForeArm 55.484349 -0.000000 43.353173
RightHand 2.072880 0.000000 -31.947185
RightHandThumb1 -24.326973 -0.000000 -32.862282
LeftUpLeg -12.565408 8.925704 3.686236
LeftLeg 0.428969 -0.000000 -0.000000
LeftFoot -13.582152 8.688862 -18.411629
LeftToeBase 9.441105 -0.000000 -0.000000
RightUpLeg -14.534262 -4.248241 -1.412493
RightLeg 3.510937 -0.000000 -0.000000
RightFoot -8.900582 -1.249324 -12.489204
RightToeBase -0.477453 -0.000000 0.000000
